<svg width="637" height="98" viewBox="0 0 637 98" fill="none" xmlns="http://www.w3.org/2000/svg">
<path d="M34.4699 96H0.438599V-2.86102e-06H34.7511C44.4073 -2.86102e-06 52.7198 1.92187 59.6886 5.76562C66.6574 9.57812 72.0167 15.0625 75.7667 22.2187C79.548 29.375 81.4386 37.9375 81.4386 47.9062C81.4386 57.9062 79.548 66.5 75.7667 73.6875C72.0167 80.875 66.6261 86.3906 59.5948 90.2344C52.5948 94.0781 44.2199 96 34.4699 96ZM20.7355 78.6094H33.6261C39.6261 78.6094 44.673 77.5469 48.7667 75.4219C52.8917 73.2656 55.9855 69.9375 58.048 65.4375C60.1417 60.9063 61.1886 55.0625 61.1886 47.9062C61.1886 40.8125 60.1417 35.0156 58.048 30.5156C55.9855 26.0156 52.9074 22.7031 48.8136 20.5781C44.7198 18.4531 39.673 17.3906 33.673 17.3906H20.7355V78.6094ZM151.811 -2.86102e-06H172.108V62.3437C172.108 69.3437 170.436 75.4687 167.092 80.7187C163.779 85.9687 159.139 90.0625 153.17 93C147.201 95.9063 140.248 97.3594 132.311 97.3594C124.342 97.3594 117.373 95.9063 111.404 93C105.436 90.0625 100.795 85.9687 97.4825 80.7187C94.17 75.4687 92.5138 69.3437 92.5138 62.3437V-2.86102e-06H112.811V60.6094C112.811 64.2656 113.608 67.5156 115.201 70.3594C116.826 73.2031 119.108 75.4375 122.045 77.0625C124.983 78.6875 128.404 79.5 132.311 79.5C136.248 79.5 139.67 78.6875 142.576 77.0625C145.514 75.4375 147.779 73.2031 149.373 70.3594C150.998 67.5156 151.811 64.2656 151.811 60.6094V-2.86102e-06ZM179.222 -2.86102e-06H201.956L223.847 41.3438H224.784L246.675 -2.86102e-06H269.409L234.394 62.0625V96H214.237V62.0625L179.222 -2.86102e-06ZM270.91 -2.86102e-06H293.645L315.535 41.3438H316.473L338.363 -2.86102e-06H361.098L326.082 62.0625V96H305.926V62.0625L270.91 -2.86102e-06ZM362.599 -2.86102e-06H385.333L407.224 41.3438H408.161L430.052 -2.86102e-06H452.786L417.77 62.0625V96H397.614V62.0625L362.599 -2.86102e-06ZM454.287 -2.86102e-06H477.021L498.912 41.3438H499.85L521.74 -2.86102e-06H544.475L509.459 62.0625V96H489.303V62.0625L454.287 -2.86102e-06ZM545.975 -2.86102e-06H568.71L590.6 41.3438H591.538L613.429 -2.86102e-06H636.163L601.147 62.0625V96H580.991V62.0625L545.975 -2.86102e-06Z" fill="black"/>
</svg>
